<svg width="100" height="100" viewBox="0 0 100 100" fill="none" xmlns="http://www.w3.org/2000/svg">
  <!-- Vòng kết nối mờ -->
  <circle cx="50" cy="50" r="36" stroke="#D4B8E0" stroke-width="1.2" stroke-dasharray="2 3" fill="none" opacity="0.5"/>

  <!-- Hạt 1 --> <circle cx="50" cy="14" r="5.2" fill="#9B7BAE"/><circle cx="48.5" cy="12.5" r="1.66" fill="white" opacity="0.55"/>
  <!-- Hạt 2 --> <circle cx="69.4" cy="19.7" r="4.5" fill="#FFB5B5"/><circle cx="68.1" cy="18.4" r="1.44" fill="white" opacity="0.55"/>
  <!-- Hạt 3 --> <circle cx="82.6" cy="34.4" r="5.8" fill="#E8D5F5"/><circle cx="81" cy="32.8" r="1.86" fill="white" opacity="0.55"/>
  <!-- Hạt 4 --> <circle cx="87.5" cy="53.1" r="4.8" fill="#B89CC8"/><circle cx="86.1" cy="51.7" r="1.54" fill="white" opacity="0.55"/>
  <!-- Hạt 5 --> <circle cx="82" cy="71.8" r="5.4" fill="#FFCFCF"/><circle cx="80.5" cy="70.3" r="1.73" fill="white" opacity="0.55"/>
  <!-- Hạt 6 --> <circle cx="68.1" cy="84.9" r="4.3" fill="#C4A8D8"/><circle cx="66.9" cy="83.7" r="1.38" fill="white" opacity="0.55"/>
  <!-- Hạt 7 --> <circle cx="50" cy="89.6" r="5.6" fill="#9B7BAE"/><circle cx="48.4" cy="88" r="1.79" fill="white" opacity="0.55"/>
  <!-- Hạt 8 --> <circle cx="31.9" cy="84.9" r="4.7" fill="#FFB5B5"/><circle cx="30.6" cy="83.6" r="1.50" fill="white" opacity="0.55"/>
  <!-- Hạt 9 --> <circle cx="18" cy="71.8" r="5.1" fill="#E8D5F5"/><circle cx="16.5" cy="70.3" r="1.63" fill="white" opacity="0.55"/>
  <!-- Hạt 10 --> <circle cx="12.5" cy="53.1" r="4.4" fill="#B89CC8"/><circle cx="11.2" cy="51.8" r="1.41" fill="white" opacity="0.55"/>
  <!-- Hạt 11 --> <circle cx="17.4" cy="34.4" r="5.5" fill="#FFCFCF"/><circle cx="15.8" cy="32.8" r="1.76" fill="white" opacity="0.55"/>
  <!-- Hạt 12 --> <circle cx="30.6" cy="19.7" r="4.9" fill="#C4A8D8"/><circle cx="29.2" cy="18.3" r="1.57" fill="white" opacity="0.55"/>

  <!-- Hạt nhỏ xen kẽ -->
  <!-- Hạt 13 --> <circle cx="60.4" cy="15.3" r="3.8" fill="#E8D5F5"/><circle cx="59.3" cy="14.2" r="1.22" fill="white" opacity="0.55"/>
  <!-- Hạt 14 --> <circle cx="77.2" cy="26.2" r="4.1" fill="#FFB5B5"/><circle cx="76" cy="25" r="1.31" fill="white" opacity="0.55"/>
  <!-- Hạt 15 --> <circle cx="86.6" cy="43" r="3.9" fill="#9B7BAE"/><circle cx="85.5" cy="41.9" r="1.25" fill="white" opacity="0.55"/>
  <!-- Hạt 16 --> <circle cx="86.2" cy="62.5" r="4.0" fill="#C4A8D8"/><circle cx="85" cy="61.3" r="1.28" fill="white" opacity="0.55"/>
  <!-- Hạt 17 --> <circle cx="76.2" cy="79.2" r="3.7" fill="#FFCFCF"/><circle cx="75.1" cy="78.1" r="1.18" fill="white" opacity="0.55"/>
  <!-- Hạt 18 --> <circle cx="60.1" cy="88.4" r="4.2" fill="#9B7BAE"/><circle cx="58.9" cy="87.2" r="1.34" fill="white" opacity="0.55"/>
  <!-- Hạt 19 --> <circle cx="39.9" cy="88.4" r="3.8" fill="#FFB5B5"/><circle cx="38.8" cy="87.3" r="1.22" fill="white" opacity="0.55"/>
  <!-- Hạt 20 --> <circle cx="23.8" cy="79.2" r="4.1" fill="#E8D5F5"/><circle cx="22.6" cy="78" r="1.31" fill="white" opacity="0.55"/>
  <!-- Hạt 21 --> <circle cx="13.8" cy="62.5" r="3.9" fill="#B89CC8"/><circle cx="12.7" cy="61.4" r="1.25" fill="white" opacity="0.55"/>
  <!-- Hạt 22 --> <circle cx="13.4" cy="43" r="4.0" fill="#FFCFCF"/><circle cx="12.2" cy="41.8" r="1.28" fill="white" opacity="0.55"/>
  <!-- Hạt 23 --> <circle cx="22.8" cy="26.2" r="3.7" fill="#9B7BAE"/><circle cx="21.7" cy="25.1" r="1.18" fill="white" opacity="0.55"/>
  <!-- Hạt 24 --> <circle cx="39.6" cy="15.3" r="4.2" fill="#C4A8D8"/><circle cx="38.4" cy="14.1" r="1.34" fill="white" opacity="0.55"/>

  <!-- Charm tâm -->
  <circle cx="50" cy="50" r="6" fill="#9B7BAE" opacity="0.15"/>
  <circle cx="50" cy="50" r="3.5" fill="#9B7BAE" opacity="0.6"/>
  <circle cx="48.8" cy="48.8" r="1.2" fill="white" opacity="0.7"/>
</svg>
